<?xml version="1.0" standalone="no"?>
<!DOCTYPE svg PUBLIC "-//W3C//DTD SVG 20010904//EN"
 "http://www.w3.org/TR/2001/REC-SVG-20010904/DTD/svg10.dtd">
<svg version="1.0" xmlns="http://www.w3.org/2000/svg"
 width="101.000000pt" height="101.000000pt" viewBox="0 0 101.000000 101.000000"
 preserveAspectRatio="xMidYMid meet">
<metadata>
Created by potrace 1.11, written by Peter Selinger 2001-2013
</metadata>
<g transform="translate(0.000000,101.000000) scale(0.100000,-0.100000)"
fill="#000000" stroke="none">
<path d="M230 966 c-134 -35 -223 -154 -222 -296 0 -56 35 -160 53 -160 5 0 9
-6 9 -12 0 -18 441 -455 446 -443 2 6 100 107 218 225 200 202 241 251 252
303 9 40 12 52 14 52 6 0 4 78 -2 81 -4 3 -5 13 -3 24 2 11 -1 20 -6 20 -6 0
-8 4 -5 8 7 12 -29 77 -65 117 -26 28 -70 55 -139 85 -54 23 -188 -1 -246 -45
-30 -23 -32 -23 -50 -7 -52 48 -169 70 -254 48z"/>
</g>
</svg>
